# xmcd CD database file
#
# Track frame offsets:
#	180
#	18691
#	36722
#	53982
#	73133
#	89138
#	105855
#	119350
#	131867
#	142955
#	159682
#	174160
#	189472
#	204482
#	220733
#
# Disc length: 3269 seconds
#
# Revision: 0
# Processed by: cddbd v1.5.1PL2 Copyright (c) Steve Scherf et al.
# Submitted via: CDex 1.51
#
DISCID=e30cc30f
DTITLE=Railroad Bill - Carnival of Animals
DYEAR=1996
DGENRE=Country
TTITLE0=Trust in me
TTITLE1=Rain
TTITLE2=Little Lord Havershite
TTITLE3=Love on the dole
TTITLE4=Carnival of Animals
TTITLE5=Cabernet Sauvignon
TTITLE6=Me and Bobby Moore
TTITLE7=Shala la la (ooh ooh yeah yeah) I love you
TTITLE8=Iron and Steel
TTITLE9=Boyz 'r' us
TTITLE10=Theme park at the end of the world
TTITLE11=I got the power
TTITLE12=Last of the Sgt Majors
TTITLE13=Oh! (that a life)
TTITLE14=Some Small Mercies
EXTD=YEAR: 1996
EXTT0=
EXTT1=
EXTT2=
EXTT3=
EXTT4=
EXTT5=
EXTT6=
EXTT7=
EXTT8=
EXTT9=
EXTT10=
EXTT11=
EXTT12=
EXTT13=
EXTT14=
PLAYORDER=
